<svg xmlns="http://www.w3.org/2000/svg" width="456.628" height="120.904" viewBox="0 0 456.628 120.904">
  <path id="Caminho_6363" data-name="Caminho 6363" d="M158.4,83.381c28.682-14.451,69.888-9.554,102.243,13.528,8.43-27.7,29.665-51.965,59.551-64.027,50.419-20.392,106.679,1.786,125.526,49.476a102.64,102.64,0,0,1,4.857,17.4,91.211,91.211,0,0,1,9.815-4.536c41.768-16.92,84.881-.5,104.451,35.044,1.224,2.188,9.413,20.172,5.46,15.013-24.748-32.6-74.926-40.464-114.306-24.547a96.062,96.062,0,0,0-9.674,4.4,86.5,86.5,0,0,0-4.737-16.98c-18.486-46.726-68.6-69.166-118.059-49.155-29.324,11.842-50.038,35.546-58.287,62.663-31.673-22.6-75.267-28.622-115.751-12.264a128.492,128.492,0,0,0-34.743,20.894c6.764-17.04,14.973-32.455,43.655-46.907" transform="translate(-114.747 -25.302)" fill="#004a93" fill-rule="evenodd"/>
</svg>
