<?xml version="1.0" encoding="utf-8"?>
<!-- Generator: Adobe Illustrator 22.0.1, SVG Export Plug-In . SVG Version: 6.00 Build 0)  -->
<svg version="1.1" id="Layer_1" xmlns="http://www.w3.org/2000/svg" xmlns:xlink="http://www.w3.org/1999/xlink" x="0px" y="0px"
	 viewBox="0 0 141.732 45.276" style="enable-background:new 0 0 141.732 45.276;" xml:space="preserve">
<style type="text/css">
	.st0{fill-rule:evenodd;clip-rule:evenodd;fill:#004A93;}
	.st1{fill:#9B9B9A;}
</style>
<g>
	<path class="st0" d="M116.922,28.196c1.429-0.72,3.482-0.476,5.094,0.674c0.42-1.38,1.478-2.589,2.967-3.19
		c2.512-1.016,5.315,0.089,6.254,2.465c0.109,0.284,0.186,0.576,0.242,0.867c0.156-0.084,0.319-0.159,0.489-0.226
		c2.081-0.843,4.229-0.025,5.204,1.746c0.061,0.109,0.469,1.005,0.272,0.748c-1.233-1.624-3.733-2.016-5.695-1.223
		c-0.166,0.065-0.328,0.138-0.482,0.219c-0.049-0.284-0.126-0.566-0.236-0.846c-0.921-2.328-3.418-3.446-5.882-2.449
		c-1.461,0.59-2.493,1.771-2.904,3.122c-1.578-1.126-3.75-1.426-5.767-0.611c-0.65,0.263-1.228,0.617-1.731,1.041
		C115.084,29.684,115.493,28.916,116.922,28.196"/>
	<path class="st0" d="M130.503,19.236l-2.319-0.002v-2.962h2.307v-0.004c0.823,0,1.491,0.667,1.491,1.491
		C131.982,18.581,131.325,19.236,130.503,19.236 M132.903,17.753c0-1.344-1.076-2.431-2.412-2.456v-0.002h-2.661v0.002
		c-0.331,0.016-0.599,0.247-0.62,0.531l-0.004,0.004v8.3h0.977v-3.922h2.272v-0.002C131.807,20.203,132.903,19.105,132.903,17.753"
		/>
	<path class="st0" d="M126.362,15.303h-0.972v5.359c0,1.31-1.196,2.489-2.505,2.489h-0.065c-1.31,0-2.507-1.179-2.507-2.489v-5.359
		h-0.007v-0.009h-0.105h-0.198h-0.039v0.002c-0.333,0.018-0.601,0.249-0.62,0.533h-0.004v0.343v0.098l0.004,4.418
		c0.014,1.853,1.478,3.358,3.313,3.442h0.389c1.834-0.084,3.297-1.589,3.316-3.442V15.303z"/>
	<path class="st1" d="M31.289,15.356h-0.781c-1.172,0-2.135,0.787-2.205,1.775l-0.012,0.005v19.581h2.999V15.356z"/>
	<path class="st1" d="M104.157,21.191v15.526h2.957V21.331c0-2.028,0.878-3.046,2.629-3.046h3.815v-2.959h-3.931
		C105.98,15.326,104.157,17.281,104.157,21.191"/>
	<path class="st1" d="M98.78,27.019c0.028-0.329,0.047-0.664,0.047-1.004c0-5.912-4.688-10.703-10.458-10.703
		c-5.786,0-10.47,4.791-10.47,10.703c0,5.891,4.651,10.666,10.404,10.701h7.732V33.77h-7.732c-3.833-0.033-6.981-2.955-7.452-6.751
		H98.78z M81.035,24.053c0.85-3.33,3.805-5.793,7.335-5.793c3.517,0,6.471,2.463,7.319,5.793H81.035z"/>
	<path class="st1" d="M12.668,15.365v-0.011H7.227V8.559H6.46c-1.219,0-2.225,0.869-2.225,1.932v26.225l8.433-0.025v-0.014
		c5.66-0.261,10.167-4.933,10.167-10.656C22.835,20.298,18.328,15.628,12.668,15.365 M12.169,33.742H7.227V18.378h4.942
		c4.024,0,7.69,3.619,7.69,7.645C19.859,30.05,16.192,33.742,12.169,33.742"/>
	<path class="st1" d="M62.801,15.361c-3.467,0-6.504,1.822-8.223,4.556c-1.722-2.734-4.756-4.556-8.226-4.556
		c-5.367,0-9.719,4.353-9.719,9.72v11.635h3.015V25.082c0-3.701,3.002-6.704,6.704-6.704c3.707,0,6.709,3.002,6.709,6.704v11.635
		h0.019h2.994h0.025V25.082c0-3.701,3.001-6.704,6.702-6.704c3.705,0,6.709,3.002,6.709,6.704v11.635h3.015V25.082
		C72.525,19.714,68.17,15.361,62.801,15.361"/>
</g>
</svg>
